<svg xmlns="http://www.w3.org/2000/svg" width="456.665" height="152.225" viewBox="0 0 456.665 152.225"><path d="M424.569 152.224c-13.992.064-25.703-5.678-33.288-15.005l.025-.025c-.003-.005-.011-.01-.015-.016-1.723-2.628.983-7.477 6.038-10.813 5.061-3.337 10.568-3.907 12.292-1.276 1.292 1.974.095 5.186-2.715 8.08 4.162 3.232 9.317 5.038 15.777 5.008 10.999-.052 17.75-5.792 17.75-21.144l-.324-7.006c-2.762 3.658-8.227 6.707-19.766 6.395-15.398-.407-28.075-12.608-27.899-32.193l-.191-39.353s7.121-4.608 16.654-.076l.046 38.514c-.067 11.377 5.402 18.051 15.231 18.002 10.669-.054 15.98-6.104 16.069-18.317l-.133-38.308h.017c.131-.087 7.014-4.552 16.464-.077h.009v.004l.057 75.657c-.25 22.086-12.431 31.859-32.098 31.949zm-97.51-36.641c-7.387.038-3.238-5.637-3.238-5.637l32.771-51.002c.183-.43.133-.99-1.326-.982l-29.359.135s-5.336-7.4.516-14.03l52.292.064c6.603-.033 2.118 5.515-.108 9.259-1.123 1.905-2.18 3.354-2.18 3.354v.004l-27.891 43.828c-.457 1.07.494 1.314 1.21 1.349l35.531-.16s4.77 7.546-.318 13.86l-57.9-.042zm-40.417 1.08c-20.164.098-36.459-15.045-37.278-35.112-.903-22.235 15.46-38.036 36.794-38.136 20.174-.095 36.447 14.881 37.277 35.278.912 22.241-15.292 37.875-36.793 37.97zm19.786-38.059c-.502-12.367-8.35-20.866-20.185-20.808-12.5.057-20.425 10.133-19.861 24.013.501 12.208 8.512 20.696 20.181 20.639 12.675-.059 20.427-10.127 19.865-23.844zm-69.226 32.203c-6.752 4.695-15.1 7.103-24.787 7.149-25.076.114-43.451-17.286-44.694-42.32-1.304-26.324 17.061-45.524 43.655-45.649 17.671-.084 27.486 7.612 33.057 14.435l-.053.025c1.804 2.425-.113 7.426-4.436 11.392-4.47 4.101-9.815 5.544-11.927 3.217-1.532-1.671-.959-4.849 1.148-8.032-4.757-3.929-10.696-6.084-17.25-6.05-16.291.073-27.26 12.645-26.369 30.577.825 16.596 11.451 27.704 26.143 27.633 10.271-.044 16.142-4.214 20.108-7.839a38.588 38.588 0 0 0 2.959-3.229l.151-.198.261-.022c9.72-.757 11.891 9.116 11.91 9.208l.055.252-.138.209c-3.076 4.764-9.732 9.201-9.793 9.242zM0 28.473V10.545C13.4 4.286 40.347 0 71.465 0s58.062 4.286 71.462 10.545v132.81H0V28.473zm22.839 54.17c-1.195 0-3.431 2.27-4.735 6.362-1.467 4.618-.622 7.668.226 7.939l19.492 5.844 22.228-7.492-37.196-12.653h-.015zm40.382-67.226c.068 6.744-2.472 14.162-7.931 23.737-1.363 2.393-2.774 4.647-4.139 6.824-6.187 9.885-11.547 18.443-9.596 34.705l24.699 8.409c-3.663-5.083-7.523-14.915 1.136-29.031 3.304-5.387 5.947-9.379 8.075-12.585 4.629-6.979 6.449-9.728 6.449-14.026.001 0-3.942-8.933-18.693-18.033zm24.698 26.111c-1.064 2.553-3.016 6.188-6.576 11.118l-1.07 1.462c-6.343 8.661-16.897 23.067-4.697 35.367l25.802-8.708a33.98 33.98 0 0 0 .547-4.247c.703-12.136-3.752-20.872-14.006-34.992zm32.991 86.184l.798.228c.642 0 2.295-1.583 3.302-4.741 1.099-3.457.438-5.667.011-5.8l-20.062-6.824-20.695 6.148 36.646 10.989zm-103.042-4.66c.995 3.159 2.644 4.747 3.284 4.747.021 0 .031 0 .039-.005l1.691-.495 101.759-30.213c.825-.266 1.68-3.31.226-7.937-1.291-4.114-3.536-6.386-4.596-6.386L17.89 117.242c-.447.144-1.11 2.351-.022 5.81z" fill-rule="evenodd" clip-rule="evenodd" fill="#ffa300"/></svg>